<?xml version="1.0" standalone="no"?>
<!DOCTYPE svg PUBLIC "-//W3C//DTD SVG 20010904//EN"
 "http://www.w3.org/TR/2001/REC-SVG-20010904/DTD/svg10.dtd">
<svg version="1.0" xmlns="http://www.w3.org/2000/svg"
 width="512.000000pt" height="512.000000pt" viewBox="0 0 512.000000 512.000000"
 preserveAspectRatio="xMidYMid meet">

<g transform="translate(0.000000,512.000000) scale(0.100000,-0.100000)"
fill="#000000" stroke="none">
<path d="M1510 4843 c0 -222 -3 -289 -16 -342 -38 -151 -148 -269 -299 -321
-53 -18 -84 -20 -347 -20 l-288 0 0 -1490 0 -1489 21 -58 c27 -69 94 -145 164
-181 l50 -27 1213 -3 c666 -1 1212 0 1212 3 0 2 -17 27 -38 55 -54 71 -109
187 -134 278 -22 82 -30 287 -15 370 l7 42 -688 0 c-678 0 -689 0 -710 20 -29
28 -37 64 -21 101 24 60 10 59 782 59 l703 0 26 53 c66 135 228 288 381 361
81 38 132 54 227 70 l65 11 3 1215 c2 841 -1 1235 -8 1279 -21 119 -87 208
-193 257 l-62 29 -1017 3 -1018 2 0 -277z m-186 -1309 c36 -36 36 -91 0 -125
-25 -24 -28 -24 -221 -24 l-195 0 -24 28 c-33 38 -32 86 2 121 l27 26 192 0
192 0 27 -26z m2151 1 c37 -36 37 -86 -1 -125 l-24 -25 -868 -3 c-603 -2 -878
0 -904 8 -25 7 -43 20 -53 40 -22 43 -19 68 14 101 l29 29 892 0 891 0 24 -25z
m-2151 -864 c29 -27 35 -83 13 -112 -26 -34 -54 -39 -232 -39 -215 0 -244 11
-245 91 0 35 24 68 60 82 8 3 97 5 197 4 177 -2 182 -3 207 -26z m2129 18 c61
-28 65 -124 7 -154 -25 -13 -142 -15 -910 -15 l-882 0 -29 29 c-45 46 -33 118
25 141 33 14 1760 12 1789 -1z m-2158 -863 c59 -25 75 -97 30 -141 -24 -25
-25 -25 -220 -25 -195 0 -196 0 -220 25 -44 43 -30 115 28 140 46 20 335 20
382 1z"/>
<path d="M1005 4660 l-320 -320 215 0 c151 1 226 5 252 14 62 22 115 72 148
139 l30 62 -2 213 -3 212 -320 -320z"/>
<path d="M3772 2150 c-139 -25 -267 -94 -373 -200 -61 -60 -86 -95 -123 -170
-60 -123 -80 -214 -73 -345 13 -252 156 -469 382 -579 100 -49 183 -68 300
-69 122 0 200 19 315 75 68 33 102 58 170 127 141 142 201 287 201 486 0 115
-17 189 -65 290 -111 234 -331 381 -586 390 -52 2 -119 0 -148 -5z m254 -292
c159 -58 260 -193 271 -364 13 -185 -103 -354 -283 -414 -148 -50 -325 -3
-430 113 -58 64 -93 137 -104 220 -44 307 257 552 546 445z"/>
<path d="M3841 1699 c-134 -26 -216 -159 -177 -291 31 -105 113 -168 219 -168
136 0 237 98 237 230 0 146 -134 257 -279 229z"/>
<path d="M3480 355 c-7 -185 -10 -338 -8 -340 3 -3 83 62 179 145 173 149 211
173 263 163 16 -3 105 -73 212 -165 101 -87 184 -155 184 -151 0 56 -32 678
-35 681 -2 2 -32 -7 -67 -21 -86 -35 -128 -45 -233 -56 -139 -16 -303 7 -419
60 -23 10 -46 19 -52 19 -7 0 -15 -109 -24 -335z"/>
</g>
</svg>
